<svg width="22" height="10" viewBox="0 0 22 10" fill="none" xmlns="http://www.w3.org/2000/svg">
<path d="M10.9509 0.416992L9.8592 2.4859L8.80273 4.55481C9.55987 6.00745 10.229 7.2664 10.9773 8.69263L13.1518 4.55481L12.0338 2.4859L10.9509 0.416992Z" fill="white"/>
<path d="M21.9111 7.46877L21.8055 7.40714L21.6998 7.33671L21.5854 7.27508L21.4797 7.20465L21.3653 7.14302L21.2596 7.0814L21.154 7.01977L21.0395 6.95814L20.9251 6.89651L20.8194 6.84369L20.705 6.78206L20.5905 6.72044L20.4849 6.65881L20.3704 6.60599L20.256 6.54436L20.1415 6.49154L20.0271 6.43871L19.9126 6.38589L19.7982 6.32426L19.7366 6.29785L18.7241 8.50762L18.7681 8.52523L18.8738 8.56925L18.9706 8.62207L19.0763 8.6749L19.1731 8.71892L19.27 8.77174L19.3756 8.82456L19.4725 8.87738L19.5693 8.9214L19.6661 8.97423L19.7718 9.03585L19.8686 9.08868L19.9655 9.1415L20.0623 9.19432L20.1592 9.24715L20.256 9.30877L20.3528 9.3616L20.4497 9.41442L20.5465 9.47605L20.6434 9.53767L20.7314 9.5905L21.9992 7.52159L21.9111 7.46877Z" fill="white"/>
<path d="M17.1756 5.31201L17.0523 5.2768L16.9291 5.24158L16.8058 5.19756L16.6825 5.16235L16.5593 5.13593L16.4272 5.10072L16.304 5.0655L16.1807 5.03029L16.0575 5.00388L15.9254 4.96866L15.8022 4.93345L15.6789 4.90703L15.5468 4.88062L15.4236 4.85421L15.2915 4.819L15.1683 4.79258L15.0362 4.77498L14.913 4.74856L14.8425 4.73096L14.4023 7.1168L14.4552 7.12561L14.5696 7.15202L14.6841 7.16963L14.7897 7.19604L14.9042 7.22245L15.0186 7.24886L15.1331 7.27527L15.2387 7.30169L15.3532 7.31929L15.4676 7.35451L15.5733 7.38092L15.6877 7.40733L15.8022 7.44255L15.9078 7.46896L16.0135 7.49537L16.1279 7.53059L16.2335 7.5658L16.348 7.59221L16.4536 7.62743L16.5681 7.66264L16.6121 7.68025L17.3428 5.36484L17.2988 5.35603L17.1756 5.31201Z" fill="white"/>
<path d="M7.1213 4.72218L6.98925 4.74859L6.85719 4.77501L6.73393 4.79261L6.60187 4.81903L6.47862 4.85424L6.34656 4.88065L6.22331 4.90706L6.09125 4.93348L5.968 4.96869L5.84474 5.00391L5.72149 5.03032L5.58943 5.06553L5.46618 5.10075L5.34292 5.13596L5.21967 5.16238L5.09641 5.19759L4.97316 5.24161L4.8411 5.27683L4.72665 5.31204L4.67383 5.32965L5.40455 7.64507L5.43976 7.62746L5.55421 7.59224L5.65986 7.56583L5.76551 7.53062L5.87996 7.4954L5.99441 7.46899L6.10005 7.44258L6.2145 7.40736L6.32015 7.38095L6.4346 7.35454L6.54025 7.31932L6.6547 7.30172L6.76915 7.2753L6.8836 7.24889L6.98925 7.22248L7.1037 7.19607L7.21815 7.16966L7.3326 7.15205L7.44705 7.12564L7.55269 7.10803L7.61432 7.09923L7.17413 4.71338L7.1213 4.72218Z" fill="white"/>
<path d="M2.2176 6.27151L2.10315 6.32434L1.9887 6.38596L1.87425 6.43879L1.7598 6.49161L1.64535 6.54443L1.5309 6.60606L1.41645 6.65888L1.302 6.72051L1.19635 6.78214L1.0819 6.84377L0.967449 6.89659L0.861802 6.95822L0.747352 7.01984L0.641706 7.08147L0.527255 7.1431L0.421609 7.20472L0.307159 7.27515L0.201512 7.33678L0.095866 7.40721L-0.000976562 7.46004L1.27558 9.52894L1.35482 9.47612L1.45166 9.41449L1.5397 9.36167L1.63654 9.30885L1.73339 9.24722L1.83023 9.1944L1.93587 9.14157L2.03272 9.08875L2.12956 9.03593L2.2264 8.9743L2.32324 8.92148L2.42009 8.87746L2.52573 8.82464L2.62258 8.77181L2.71942 8.71899L2.82506 8.67497L2.92191 8.62215L3.02755 8.56932L3.1244 8.5253L3.23004 8.48128L3.28287 8.45487L2.27042 6.25391L2.2176 6.27151Z" fill="white"/>
</svg>
