<svg width="36" height="16" viewBox="0 0 36 16" fill="none" xmlns="http://www.w3.org/2000/svg">
<path d="M17.9212 15.7563L16.1638 12.4258L14.4631 9.09533C15.682 6.75688 16.7591 4.73023 17.9637 2.43431L21.4643 9.09533L19.6644 12.4258L17.9212 15.7563Z" fill="#0C0B10"/>
<path d="M35.5657 4.40413L35.3956 4.50334L35.2256 4.61672L35.0413 4.71593L34.8713 4.82931L34.687 4.92851L34.5169 5.02772L34.3469 5.12693L34.1626 5.22613L33.9784 5.32534L33.8083 5.41037L33.6241 5.50958L33.4398 5.60879L33.2698 5.70799L33.0855 5.79303L32.9013 5.89224L32.7171 5.97727L32.5328 6.0623L32.3486 6.14734L32.1643 6.24655L32.0651 6.28906L30.4353 2.73179L30.5062 2.70345L30.6762 2.63259L30.8321 2.54755L31.0022 2.46252L31.1581 2.39166L31.314 2.30662L31.4841 2.22159L31.64 2.13655L31.7959 2.06569L31.9517 1.98066L32.1218 1.88145L32.2777 1.79642L32.4336 1.71138L32.5895 1.62635L32.7454 1.54131L32.9013 1.44211L33.0572 1.35707L33.2131 1.27204L33.369 1.17283L33.5249 1.07363L33.6666 0.988591L35.7074 4.3191L35.5657 4.40413Z" fill="#0C0B10"/>
<path d="M27.9416 7.87663L27.7432 7.93332L27.5448 7.99001L27.3464 8.06088L27.1479 8.11757L26.9495 8.16008L26.7369 8.21677L26.5385 8.27346L26.3401 8.33015L26.1417 8.37267L25.9291 8.42936L25.7307 8.48605L25.5323 8.52856L25.3197 8.57108L25.1213 8.6136L24.9087 8.67029L24.7103 8.71281L24.4977 8.74115L24.2993 8.78367L24.1859 8.81201L23.4773 4.9713L23.5623 4.95712L23.7466 4.91461L23.9308 4.88626L24.1009 4.84374L24.2851 4.80123L24.4694 4.75871L24.6536 4.71619L24.8237 4.67368L25.0079 4.64533L25.1922 4.58864L25.3622 4.54612L25.5465 4.50361L25.7307 4.44692L25.9008 4.4044L26.0708 4.36188L26.2551 4.30519L26.4252 4.24851L26.6094 4.20599L26.7795 4.1493L26.9637 4.09261L27.0346 4.06426L28.2109 7.7916L28.14 7.80577L27.9416 7.87663Z" fill="#0C0B10"/>
<path d="M11.7563 8.82604L11.5437 8.78352L11.3312 8.741L11.1327 8.71266L10.9202 8.67014L10.7217 8.61345L10.5092 8.57093L10.3107 8.52842L10.0982 8.4859L9.89975 8.42921L9.70133 8.37252L9.50292 8.33L9.29033 8.27331L9.09192 8.21663L8.89351 8.15994L8.69509 8.11742L8.49668 8.06073L8.29827 7.98987L8.08568 7.93318L7.90144 7.87649L7.81641 7.84814L8.99271 4.12081L9.0494 4.14915L9.23364 4.20584L9.40371 4.24836L9.57378 4.30505L9.75802 4.36174L9.94226 4.40425L10.1123 4.44677L10.2966 4.50346L10.4666 4.54598L10.6509 4.5885L10.821 4.64518L11.0052 4.67353L11.1894 4.71605L11.3737 4.75856L11.5437 4.80108L11.728 4.8436L11.9122 4.88612L12.0965 4.91446L12.2807 4.95698L12.4508 4.98532L12.55 4.99949L11.8414 8.84021L11.7563 8.82604Z" fill="#0C0B10"/>
<path d="M3.86246 6.33176L3.67822 6.24673L3.49397 6.14752L3.30973 6.06249L3.12549 5.97745L2.94125 5.89242L2.75701 5.79321L2.57277 5.70818L2.38853 5.60897L2.21846 5.50976L2.03422 5.41056L1.84998 5.32552L1.67991 5.22632L1.49567 5.12711L1.3256 5.0279L1.14136 4.9287L0.97129 4.82949L0.787049 4.71611L0.61698 4.6169L0.446912 4.50353L0.291016 4.41849L2.34601 1.08798L2.47356 1.17302L2.62946 1.27222L2.77118 1.35726L2.92708 1.44229L3.08297 1.5415L3.23887 1.62653L3.40894 1.71157L3.56484 1.7966L3.72073 1.88163L3.87663 1.98084L4.03252 2.06588L4.18842 2.13674L4.35849 2.22177L4.51439 2.30681L4.67028 2.39184L4.84035 2.4627L4.99625 2.54774L5.16632 2.63277L5.32221 2.70363L5.49228 2.7745L5.57731 2.81701L3.94749 6.36011L3.86246 6.33176Z" fill="#0C0B10"/>
</svg>
